<?xml version="1.0" encoding="utf-8"?>
<!-- Svg Vector Icons : http://www.onlinewebfonts.com/icon -->
<!DOCTYPE svg PUBLIC "-//W3C//DTD SVG 1.1//EN" "http://www.w3.org/Graphics/SVG/1.1/DTD/svg11.dtd">
<svg version="1.1" xmlns="http://www.w3.org/2000/svg" xmlns:xlink="http://www.w3.org/1999/xlink" x="0px" y="0px" viewBox="0 0 1000 1000" enable-background="new 0 0 1000 1000" xml:space="preserve">
<metadata> Svg Vector Icons : http://www.onlinewebfonts.com/icon </metadata>
<g><path d="M882.8,217.8c10.2,10.2,19,24.1,26.3,41.6c7.3,17.5,10.9,33.5,11,48.1v630c0,14.6-5.1,27-15.3,37.2c-10.2,10.2-22.6,15.3-37.2,15.3h-735c-14.6,0-27-5.1-37.2-15.3C85.1,964.5,80,952.1,80,937.5v-875c0-14.6,5.1-27,15.3-37.2C105.5,15.1,117.9,10,132.5,10h490c14.6,0,30.6,3.7,48.1,11c17.5,7.3,31.4,16.1,41.6,26.3L882.8,217.8z M640,84.3V290h205.6c-3.6-10.6-7.7-18-12-22.4L662.4,96.3C658,92,650.6,88,640,84.3L640,84.3z M850,920V360H622.5c-14.6,0-27-5.1-37.2-15.3C575.1,334.4,570,322,570,307.5V80H150v840H850L850,920z M342.5,430c2.9-4,6.7-6.3,11.5-6.8c4.7-0.5,9.1,0.7,13.1,3.6l27.9,20.8c4,2.9,6.3,6.7,6.8,11.5c0.5,4.7-0.7,9.1-3.6,13.1L298.7,605l99.5,132.9c2.9,4,4.1,8.4,3.6,13.1c-0.5,4.7-2.8,8.6-6.8,11.5l-27.9,20.8c-4,2.9-8.4,4.1-13.1,3.6c-4.7-0.5-8.6-2.8-11.5-6.8L218.9,615.4c-5.1-6.9-5.1-13.9,0-20.8L342.5,430z M781.1,594.6c5.1,6.9,5.1,13.9,0,20.8L657.5,780c-2.9,4-6.7,6.3-11.5,6.8c-4.7,0.5-9.1-0.7-13.1-3.6L605,762.4c-4-2.9-6.3-6.7-6.8-11.5c-0.5-4.7,0.7-9.1,3.6-13.1l99.5-132.9L601.7,472c-2.9-4-4.1-8.4-3.6-13.1c0.5-4.7,2.8-8.6,6.8-11.5l27.9-20.8c4-2.9,8.4-4.1,13.1-3.6c4.7,0.5,8.6,2.8,11.5,6.8L781.1,594.6z M442,846.7c-4.7-0.7-8.5-3.1-11.2-7.1c-2.7-4-3.7-8.4-3-13.1L503.3,372c0.7-4.7,3.1-8.5,7.1-11.2c4-2.7,8.4-3.7,13.1-3l34.4,5.5c4.7,0.7,8.5,3.1,11.2,7.1c2.7,4,3.7,8.4,3,13.1l-75.5,454.4c-0.7,4.7-3.1,8.5-7.1,11.2c-4,2.7-8.4,3.7-13.1,3L442,846.7z"/></g>
</svg>